<?xml version="1.0" standalone="no"?>
<!DOCTYPE svg PUBLIC "-//W3C//DTD SVG 20010904//EN"
 "http://www.w3.org/TR/2001/REC-SVG-20010904/DTD/svg10.dtd">
<svg version="1.0" xmlns="http://www.w3.org/2000/svg"
 width="1370.000000pt" height="1024.000000pt" viewBox="0 0 1370.000000 1024.000000"
 preserveAspectRatio="xMidYMid meet">

<g transform="translate(0.000000,1024.000000) scale(0.100000,-0.100000)"
fill="#000000" stroke="none">
<path d="M0 5120 l0 -5120 6850 0 6850 0 0 5120 0 5120 -6850 0 -6850 0 0
-5120z m7255 3960 c8 -16 15 -33 15 -39 0 -5 -24 -17 -52 -25 -86 -25 -154
-71 -205 -137 -33 -42 -51 -58 -63 -54 -10 3 -36 11 -58 18 l-41 12 18 41 c51
113 201 212 323 214 43 0 49 -3 63 -30z m567 -100 c117 -36 238 -133 288 -230
12 -23 19 -44 17 -47 -3 -3 -38 17 -79 45 -190 128 -348 164 -528 120 -51 -13
-130 -49 -210 -98 -48 -30 -66 -34 -135 -38 l-80 -4 55 57 c101 106 257 190
395 215 71 13 202 3 277 -20z m-1102 -16 c0 -3 -7 -27 -16 -55 l-16 -49 -53 0
c-100 0 -221 -59 -284 -139 -208 -262 0 -631 356 -631 73 0 194 30 258 63 33
18 88 59 123 91 63 59 63 59 127 60 36 1 65 -1 65 -5 0 -18 -66 -103 -119
-152 -78 -71 -143 -109 -246 -144 -69 -23 -97 -26 -200 -26 -101 0 -132 4
-197 25 -373 123 -499 548 -242 818 95 99 212 149 357 149 48 1 87 -2 87 -5z
m1150 -276 c104 -48 180 -120 226 -213 32 -65 36 -81 32 -133 -3 -38 -12 -71
-28 -97 -27 -44 -23 -48 -59 69 -54 174 -182 284 -341 294 -87 5 -157 -15
-259 -72 -162 -92 -327 -100 -488 -24 -67 31 -79 53 -49 93 14 19 16 19 102
-2 128 -32 145 -33 216 -22 43 7 98 28 173 66 146 74 179 83 300 79 90 -2 108
-6 175 -38z m-1176 16 c3 -9 6 -33 6 -54 0 -36 -2 -38 -39 -44 -50 -8 -111
-72 -111 -117 0 -58 42 -112 100 -129 41 -12 112 3 152 31 32 23 57 18 106
-20 l24 -17 -26 -31 c-56 -66 -196 -99 -297 -70 -69 21 -121 64 -153 129 -64
129 1 281 138 324 57 18 93 17 100 -2z m-704 -263 c0 -27 3 -62 6 -79 6 -29 4
-31 -37 -42 -100 -27 -303 -96 -439 -150 -359 -143 -625 -291 -925 -515 -756
-565 -1263 -1477 -1356 -2439 -12 -129 -7 -565 8 -626 l9 -35 616 -3 c576 -2
617 -3 622 -20 2 -9 8 -36 11 -59 l7 -43 -622 0 -623 0 6 -42 c3 -24 9 -67 13
-95 l7 -53 -86 0 -85 0 -11 48 c-35 149 -62 489 -57 712 12 537 158 1093 416
1587 316 605 804 1112 1415 1468 239 140 641 313 902 389 211 61 203 61 203
-3z m1782 8 c13 -5 34 -25 46 -43 38 -56 2 -113 -65 -103 -74 12 -127 103 -82
140 24 19 67 22 101 6z m778 -122 c486 -191 967 -503 1319 -856 500 -501 824
-1073 1000 -1766 112 -443 123 -942 30 -1412 l-10 -53 -85 0 c-60 0 -84 3 -84
13 0 6 7 47 15 90 8 43 15 81 15 83 0 2 -275 4 -611 4 -514 0 -610 2 -606 14
3 7 9 34 12 60 l7 46 601 2 601 3 8 30 c21 76 31 348 20 524 -30 459 -150 889
-371 1326 -104 206 -184 334 -316 510 -274 366 -597 663 -992 914 -200 127
-568 306 -722 352 -23 7 -44 18 -46 23 -2 6 -6 48 -9 93 l-6 81 37 -10 c21 -5
108 -37 193 -71z m-336 -322 c-1 -65 -6 -103 -21 -139 l-20 -49 -21 94 c-12
52 -22 98 -22 102 0 5 15 33 33 62 27 44 34 50 42 36 5 -9 9 -56 9 -106z
m-522 76 c124 -21 272 -122 313 -215 41 -93 109 -312 102 -330 -5 -13 -17 -16
-54 -14 l-47 3 -42 122 c-50 148 -74 189 -139 242 -76 62 -142 84 -240 78 -44
-3 -95 -9 -112 -12 -29 -6 -34 -4 -43 19 -16 43 2 72 57 89 84 28 124 31 205
18z m-4609 -49 c9 -8 17 -29 17 -45 0 -62 -61 -88 -107 -45 -32 30 -30 71 4
97 28 23 54 21 86 -7z m2771 -39 c-56 -82 -96 -166 -138 -293 l-31 -95 -415
-1 c-228 -1 -421 1 -427 5 -8 4 16 26 65 58 l77 52 305 7 305 7 23 56 c43 103
55 94 -109 86 -79 -3 -157 -2 -173 2 -27 8 -22 12 80 57 194 85 319 120 446
125 l38 1 -46 -67z m345 26 l33 -40 -23 -16 c-13 -9 -56 -48 -95 -87 -63 -64
-113 -143 -138 -219 -5 -16 -8 -16 -43 7 -31 19 -38 29 -37 54 2 41 57 146
107 206 37 44 144 136 157 136 3 0 20 -19 39 -41z m2270 -24 c115 -37 305
-129 236 -115 -5 1 -56 -2 -111 -5 l-102 -7 -16 -57 c-28 -99 -51 -91 247 -87
l262 3 45 -25 c25 -14 65 -39 90 -56 l45 -31 -60 -6 c-83 -9 -835 -11 -835 -3
0 4 11 30 24 58 47 100 85 243 86 319 0 20 2 37 4 37 3 0 41 -11 85 -25z
m-1930 -147 c52 -25 101 -95 101 -146 0 -48 -28 -101 -64 -123 -29 -18 -116
-27 -116 -13 0 4 15 21 34 38 48 44 53 77 18 117 -54 61 -165 48 -230 -26 -38
-42 -46 -71 -39 -131 20 -182 291 -225 453 -72 67 63 104 143 111 243 l6 73
43 11 c75 19 74 19 74 -61 -1 -243 -157 -432 -387 -469 -227 -37 -422 95 -423
286 0 101 70 217 162 266 77 41 178 44 257 7z m4435 -77 c25 -28 17 -72 -16
-90 -25 -14 -29 -14 -55 5 -15 12 -29 31 -31 43 -8 51 66 82 102 42z m-3357
-20 c36 -22 50 -55 33 -76 -19 -23 -210 -21 -240 3 -70 57 121 125 207 73z
m-1726 -239 l46 -23 5 -67 c8 -111 67 -200 162 -247 48 -23 63 -26 152 -24 65
2 107 -2 123 -10 l23 -13 -27 -28 c-36 -38 -103 -60 -180 -60 -158 0 -298 106
-347 262 -18 60 -27 244 -10 236 4 -2 28 -14 53 -26z m-211 -242 l0 -190 -709
0 c-457 0 -712 4 -716 10 -3 5 15 32 41 60 l47 50 603 0 604 0 0 48 c0 26 3
57 6 70 l6 22 -521 0 c-286 0 -521 3 -521 7 0 4 23 31 52 60 l52 53 528 0 528
0 0 -190z m3744 139 c31 -28 56 -55 56 -60 0 -5 -211 -9 -500 -9 l-500 0 0
-24 c0 -13 3 -44 6 -70 l7 -46 586 -1 586 -1 44 -49 c29 -32 41 -53 35 -59 -7
-7 -260 -9 -697 -8 l-687 3 -4 120 c-3 66 -12 147 -20 180 -8 33 -15 63 -16
68 0 4 236 7 524 7 l524 0 56 -51z m-1423 -205 c22 -11 29 -21 27 -37 -2 -17
-12 -23 -51 -30 -58 -9 -106 2 -124 30 -13 20 -12 23 14 37 36 20 96 20 134 0z
m-2025 -262 c19 -8 39 -30 58 -68 53 -101 151 -159 292 -171 73 -6 74 -6 74
-34 0 -26 -5 -30 -57 -45 -109 -32 -237 4 -331 91 -78 72 -116 144 -146 278
l-6 27 43 -33 c24 -18 57 -39 73 -45z m2058 35 c8 -21 7 -35 -5 -55 -13 -24
-21 -27 -80 -30 -54 -2 -70 1 -92 18 -33 26 -35 63 -4 85 16 12 41 15 97 13
72 -3 75 -4 84 -31z m-2319 -54 c23 -92 95 -227 171 -320 l27 -33 -1032 0
c-567 0 -1031 2 -1031 5 0 2 16 29 35 60 l36 55 212 1 c117 1 510 1 875 -1
555 -2 662 0 661 11 0 8 -12 39 -27 69 l-27 55 -793 3 c-435 1 -792 5 -792 7
0 3 19 30 41 60 l41 55 798 0 798 0 7 -27z m4205 -26 c22 -30 40 -57 40 -60 0
-4 -367 -8 -816 -9 -712 -3 -817 -5 -824 -18 -5 -8 -23 -39 -41 -69 l-31 -54
763 5 c420 3 832 3 916 0 l152 -5 35 -53 c20 -30 36 -56 36 -59 0 -3 -471 -5
-1047 -6 -765 0 -1060 -4 -1093 -12 l-45 -12 0 -55 0 -55 1105 -2 c608 -2
1114 -3 1125 -3 19 0 75 -73 75 -99 0 -8 -297 -12 -1152 -13 l-1153 -3 -3 -44
c-2 -25 -1 -55 3 -68 l5 -23 1184 0 c935 0 1186 -3 1193 -12 5 -7 17 -32 26
-54 16 -41 16 -42 -6 -48 -12 -3 -450 -6 -974 -6 -523 0 -954 -4 -957 -9 -3
-4 65 -35 152 -67 l157 -59 846 -3 845 -2 17 -48 c9 -26 17 -53 17 -59 0 -10
-167 -13 -782 -15 l-783 -3 -3 -22 c-2 -13 -6 -23 -9 -23 -3 0 -175 56 -382
123 -207 68 -442 144 -523 168 l-148 44 0 266 0 266 48 11 c173 40 278 127
328 276 l16 46 824 0 823 0 41 -53z m-3520 -12 c0 -31 -3 -35 -22 -31 -13 3
-40 8 -60 11 -21 3 -38 9 -38 13 0 9 77 39 103 41 13 1 17 -7 17 -34z m-4531
-199 l64 -65 -67 -75 c-37 -42 -71 -76 -74 -76 -9 0 -152 137 -152 145 0 4 30
40 67 80 51 55 71 71 83 65 8 -5 44 -38 79 -74z m5046 -346 c157 -301 292
-452 624 -695 312 -229 554 -429 713 -592 70 -72 86 -94 81 -112 -6 -23 -39
-51 -61 -51 -8 0 -51 35 -96 78 -174 168 -375 334 -596 496 -333 242 -460 358
-602 546 -89 117 -206 340 -215 410 -7 48 5 62 52 58 28 -3 35 -13 100 -138z
m-505 -54 l0 -173 -262 -78 c-205 -61 -592 -180 -950 -292 -15 -4 -18 1 -18
26 l0 31 -819 0 c-451 0 -822 4 -825 8 -3 5 2 32 11 60 l17 52 905 2 906 3
150 57 c82 31 151 61 153 67 3 8 -289 11 -1027 11 -883 0 -1031 2 -1031 14 0
8 9 35 20 60 l19 46 1311 0 1310 0 0 70 0 70 -1275 0 c-900 0 -1275 3 -1275
11 0 6 11 30 25 54 l26 43 1257 5 c697 4 1277 10 1302 15 25 5 51 10 58 11 9
1 12 -40 12 -173z m5855 117 c30 -32 55 -60 55 -63 0 -11 -112 -120 -122 -120
-15 0 -118 107 -118 122 0 16 101 118 117 118 7 0 37 -26 68 -57z m-5975 -584
c297 -69 650 -196 650 -235 0 -7 -11 -26 -24 -41 l-24 -28 -124 42 c-193 67
-403 128 -554 162 -134 31 -233 56 -264 68 -10 3 -1 10 25 20 124 47 157 48
315 12z m-300 -219 c151 -49 356 -112 455 -140 539 -149 882 -311 1264 -598
186 -139 422 -386 537 -561 27 -42 28 -44 9 -57 -10 -8 -38 -14 -61 -14 -40 0
-45 3 -90 63 -74 97 -226 265 -306 339 -66 59 -141 119 -270 215 -118 87 -434
260 -599 328 -160 66 -400 145 -624 204 -125 34 -277 85 -476 161 -225 87
-251 106 -191 142 15 10 38 15 52 12 14 -3 149 -45 300 -94z m2396 74 c19 -9
39 -25 45 -35 12 -23 -2 -30 -99 -54 -87 -22 -165 -57 -244 -112 l-67 -46 -45
34 c-25 19 -46 37 -46 40 0 15 84 81 142 110 82 42 193 78 241 79 22 0 54 -7
73 -16z m-3456 -44 c0 -22 -12 -37 -55 -70 -72 -56 -148 -138 -224 -244 l-62
-86 -591 0 -591 0 7 38 c3 20 6 47 6 60 l0 22 549 0 550 0 22 33 c12 17 49 60
83 95 l60 62 -612 0 c-547 0 -612 2 -612 16 0 8 5 35 11 60 l11 44 707 2 c388
2 714 1 724 -1 11 -2 17 -13 17 -31z m5599 -7 c6 -21 11 -48 11 -60 l0 -23
-555 0 c-305 0 -555 -3 -555 -7 0 -5 14 -24 31 -43 16 -19 48 -59 70 -87 l40
-53 508 0 508 0 7 -51 c4 -28 4 -54 1 -58 -4 -3 -254 -6 -557 -6 -528 0 -551
1 -562 19 -47 79 -144 202 -223 280 -51 51 -93 100 -93 109 0 16 54 17 680 17
l679 0 10 -37z m-1873 -170 c47 -31 29 -53 -71 -87 -106 -36 -208 -91 -249
-135 -17 -17 -33 -31 -38 -31 -12 0 -78 61 -78 73 0 19 89 94 153 128 72 39
202 79 235 73 13 -3 35 -12 48 -21z m-3176 -48 c152 -12 378 -97 472 -176 55
-46 115 -75 185 -89 629 -124 902 -228 1172 -444 121 -98 269 -270 331 -388
29 -55 23 -67 -38 -75 -46 -6 -38 -13 -133 117 -75 102 -219 247 -310 312
-165 117 -373 206 -662 283 -245 65 -333 94 -353 116 -9 10 -24 19 -31 19 -28
0 -209 64 -288 101 -180 86 -359 125 -515 115 -100 -7 -210 -29 -269 -53 -107
-45 -227 -155 -279 -258 -28 -57 -58 -82 -80 -68 -25 16 -20 79 11 143 43 86
52 99 110 160 95 98 263 170 444 189 76 8 95 8 233 -4z m-3175 -310 c14 -13
25 -33 25 -45 0 -27 -35 -60 -64 -60 -25 0 -66 41 -66 67 0 19 45 63 65 63 9
0 27 -11 40 -25z m3369 -48 c113 -56 228 -145 241 -188 8 -23 -28 -69 -53 -69
-8 0 -47 24 -86 54 -91 70 -153 106 -243 141 -40 15 -82 38 -94 51 -21 22 -21
24 -4 50 16 25 21 26 72 21 39 -4 89 -22 167 -60z m3312 18 c3 -14 4 -32 0
-40 -3 -8 -48 -34 -100 -59 -102 -48 -174 -101 -221 -166 -34 -45 -56 -56 -84
-41 -51 28 -33 78 63 174 92 92 213 156 298 157 32 0 39 -4 44 -25z m-4466
-12 c0 -5 -6 -30 -13 -58 l-13 -50 -552 -3 -552 -2 0 53 c0 30 3 57 7 60 9 10
1123 9 1123 0z m6104 -9 c3 -9 6 -36 6 -60 l0 -44 -530 0 -529 0 -11 43 c-6
23 -13 50 -16 60 -5 16 25 17 534 17 483 0 540 -2 546 -16z m1061 -30 c33 -15
65 -64 65 -99 0 -25 -28 -73 -49 -85 -11 -5 -38 -10 -61 -10 -76 0 -125 84
-89 153 13 24 32 38 64 49 31 10 35 9 70 -8z m-7987 -230 c26 -7 52 -51 52
-87 0 -37 -35 -67 -78 -67 -21 0 -43 5 -49 11 -7 7 -62 14 -127 17 l-116 5 0
58 0 58 123 4 c67 1 133 4 147 5 14 1 35 -1 48 -4z m399 -16 c17 -16 23 -32
23 -64 0 -36 -5 -46 -29 -63 -43 -31 -96 -28 -132 8 -37 38 -39 82 -4 116 33
34 108 35 142 3z m326 2 c49 -39 43 -106 -14 -136 -30 -15 -35 -15 -66 0 -57
27 -67 93 -21 136 28 25 68 26 101 0z m5290 0 c33 -26 41 -63 23 -99 -31 -59
-111 -59 -142 0 -20 40 -18 57 15 90 34 34 68 37 104 9z m382 -5 c56 -55 13
-145 -69 -145 -52 0 -81 20 -96 65 -20 61 18 105 91 105 40 0 55 -5 74 -25z
m443 15 l92 0 0 -59 c0 -69 -2 -71 -120 -71 -42 0 -81 -5 -86 -10 -6 -6 -28
-11 -49 -12 -75 -3 -113 85 -59 139 23 23 31 25 77 19 29 -3 94 -6 145 -6z
m-5049 -56 c169 -48 367 -196 472 -352 78 -117 76 -142 -8 -142 -40 0 -43 3
-88 66 -83 115 -207 223 -304 264 -19 8 -31 20 -31 31 0 23 -22 33 -115 54
-96 22 -126 52 -88 90 18 19 67 15 162 -11z m980 -94 c228 -33 378 -86 468
-166 37 -32 38 -33 23 -61 -9 -15 -25 -29 -37 -31 -12 -2 -61 17 -110 41 -105
53 -189 79 -344 107 -135 24 -173 34 -204 54 -21 14 -38 59 -27 71 10 10 100
5 231 -15z m-2724 -764 c60 -27 107 -74 138 -135 20 -42 22 -61 22 -201 0
-132 -3 -160 -19 -190 -50 -94 -115 -132 -238 -138 l-88 -4 0 -140 c0 -77 -5
-148 -10 -159 -9 -16 -22 -19 -94 -19 -67 0 -85 3 -90 16 -3 9 -6 231 -6 494
0 434 2 480 17 495 15 15 34 16 167 10 126 -6 159 -11 201 -29z m790 8 c53
-25 105 -79 135 -139 25 -50 25 -52 25 -346 l0 -296 -35 -68 c-56 -110 -153
-164 -273 -151 -117 12 -195 72 -236 180 -19 53 -21 76 -21 330 0 316 6 350
73 423 40 44 76 68 127 84 41 14 161 4 205 -17z m771 11 c60 -17 127 -73 154
-126 37 -72 28 -83 -90 -114 l-61 -16 -35 31 c-41 35 -62 37 -98 9 -32 -25
-35 -75 -6 -112 11 -14 57 -50 103 -81 119 -80 159 -117 192 -177 27 -48 30
-63 30 -139 0 -73 -4 -92 -27 -136 -15 -29 -46 -68 -70 -88 -122 -105 -335
-76 -426 58 -61 92 -56 121 29 148 83 26 105 23 143 -17 59 -62 136 -36 136
45 0 43 -42 87 -134 141 -221 127 -281 345 -138 499 75 82 184 109 298 75z
m858 2 c14 -10 16 -26 14 -102 l-3 -90 -110 -5 -110 -5 -3 -102 c-3 -102 -3
-102 22 -109 14 -3 42 -4 64 -2 21 3 48 1 60 -3 20 -8 22 -15 22 -78 0 -85 -7
-91 -104 -91 l-66 0 0 -110 0 -109 113 -3 112 -3 0 -95 0 -95 -210 0 -210 0
-3 495 c-2 456 -1 496 15 508 24 17 372 17 397 -1z m400 -3 c14 -14 16 -72 16
-487 0 -260 -3 -482 -6 -494 -6 -22 -12 -23 -90 -23 -73 0 -85 2 -94 20 -7 14
-10 171 -8 496 4 548 -5 504 104 504 44 0 67 -5 78 -16z m650 -10 c63 -22 145
-99 181 -171 l30 -58 0 -270 0 -270 -28 -57 c-16 -32 -48 -75 -73 -97 -69 -60
-112 -71 -290 -71 l-152 0 -6 25 c-4 14 -6 236 -6 495 1 425 2 471 17 486 15
15 33 16 149 10 77 -4 151 -13 178 -22z m882 -2 c23 -12 60 -42 82 -67 68 -77
72 -100 72 -421 0 -265 -1 -287 -21 -340 -45 -120 -151 -183 -285 -171 -116
11 -191 63 -236 161 -22 49 -23 63 -26 329 -3 308 2 348 57 424 32 44 101 90
154 104 54 14 158 4 203 -19z m587 10 c9 -9 44 -76 78 -147 33 -72 79 -167
100 -212 22 -46 44 -83 49 -83 6 0 10 81 10 220 0 207 1 220 19 230 29 15 146
13 160 -4 8 -9 10 -151 9 -507 l-3 -494 -83 -3 -83 -3 -38 83 c-21 46 -67 146
-101 223 -69 154 -67 151 -77 142 -9 -9 -11 -53 -12 -265 l-1 -183 -87 3 -88
3 -3 494 c-1 356 1 498 9 507 18 22 122 19 142 -4z m1076 2 c93 -27 193 -145
164 -193 -10 -18 -105 -67 -141 -74 -18 -3 -26 1 -32 19 -21 53 -100 61 -146
13 l-29 -30 0 -241 0 -240 28 -24 c53 -45 102 -26 118 46 15 64 3 119 -26 126
-28 7 -41 61 -30 130 l6 44 123 0 c93 0 126 -3 135 -14 8 -9 11 -94 9 -287
l-3 -274 -74 -3 c-81 -3 -91 2 -91 51 0 15 -3 27 -6 27 -4 0 -33 -18 -66 -40
-46 -31 -70 -40 -102 -40 -84 1 -165 62 -210 159 -20 43 -21 65 -24 328 -2
268 -1 285 19 340 57 151 215 226 378 177z m864 -17 c51 -30 115 -100 123
-134 8 -30 -10 -51 -66 -75 -90 -40 -99 -40 -127 -8 -55 66 -144 24 -158 -74
-12 -75 -1 -408 13 -434 22 -38 54 -54 89 -42 39 14 53 46 53 125 0 65 0 65
-29 65 -32 0 -41 18 -41 85 0 88 -4 85 141 85 117 0 129 -2 139 -19 11 -21 15
-517 4 -545 -5 -12 -21 -16 -73 -16 -72 0 -91 10 -91 46 0 35 -17 38 -53 10
-59 -45 -101 -57 -153 -46 -25 6 -58 17 -74 25 -37 19 -89 80 -114 134 -20 43
-21 62 -21 336 0 273 1 293 21 335 40 86 112 150 192 170 20 5 69 8 108 6 56
-2 82 -9 117 -29z m-5948 -1588 c94 -76 314 -235 397 -287 96 -60 341 -183
498 -251 199 -86 202 -86 155 -17 -35 52 -69 80 -148 122 -38 20 -66 38 -63
41 2 3 37 5 76 4 144 -1 250 -86 295 -235 12 -39 13 -40 111 -72 54 -17 101
-30 103 -28 2 2 -10 27 -28 55 -17 28 -30 53 -29 54 4 4 128 -14 151 -21 15
-5 17 -21 17 -146 l0 -140 -37 6 c-236 42 -606 174 -911 326 -245 122 -450
253 -667 427 -180 143 -550 522 -530 542 4 3 48 8 98 11 l92 5 175 -170 c97
-93 207 -195 245 -226z m5313 384 c29 -3 51 -10 50 -15 -2 -4 -68 -81 -148
-169 -268 -298 -591 -562 -928 -758 -90 -52 -312 -161 -329 -161 -10 0 -13 42
-13 178 l0 178 33 12 c17 6 70 14 117 18 l85 6 -62 -40 c-55 -36 -123 -110
-123 -134 0 -13 173 77 305 160 244 152 491 354 715 583 l145 149 50 0 c27 0
74 -3 103 -7z m-3955 -116 c83 -26 167 -100 167 -146 0 -20 -85 -12 -174 19
-101 34 -212 51 -276 43 -25 -3 -94 -21 -154 -40 -165 -52 -276 -46 -390 21
-38 22 -106 93 -106 110 0 14 130 4 188 -14 84 -26 165 -25 287 5 89 22 116
24 255 21 102 -3 172 -9 203 -19z m2938 -4 c-38 -71 -203 -143 -325 -143 -36
0 -66 2 -66 5 0 3 11 27 24 54 42 81 87 98 274 100 95 1 102 0 93 -16z m-566
-13 c8 -26 -10 -57 -45 -75 -26 -13 -145 -15 -984 -13 -952 3 -955 3 -983 24
-18 14 -29 32 -31 52 l-3 32 1020 0 c1004 0 1020 0 1026 -20z m-3599 -11 c86
-27 146 -65 259 -169 151 -138 276 -190 419 -177 33 3 115 24 180 47 186 64
319 65 473 3 54 -21 68 -32 79 -59 25 -60 20 -74 -28 -74 -23 0 -74 11 -114
25 -145 50 -233 44 -409 -28 -86 -35 -113 -42 -190 -45 -184 -8 -283 36 -511
229 -59 50 -134 104 -166 119 -56 27 -186 126 -187 143 -2 15 129 6 195 -14z
m4704 17 c0 -14 -160 -130 -202 -147 -29 -11 -101 -60 -164 -109 -61 -50 -139
-103 -172 -120 -89 -44 -212 -66 -339 -61 -33 1 -33 1 -33 54 l0 53 109 17
c179 27 233 52 376 176 119 103 208 139 348 140 42 1 77 -1 77 -3z m-2317
-341 c23 -23 29 -171 25 -682 -3 -449 -4 -463 -23 -477 -33 -25 -80 -20 -104
10 -21 26 -21 35 -21 575 0 536 0 549 20 569 24 24 82 27 103 5z m551 -1 c9
-8 19 -26 22 -38 3 -13 4 -265 2 -559 -3 -529 -3 -537 -24 -557 -29 -30 -82
-30 -106 0 -17 21 -18 54 -18 578 0 503 2 557 17 574 20 23 85 24 107 2z
m-1238 -89 l25 -25 -3 -514 c-3 -502 -4 -516 -23 -530 -27 -20 -74 -20 -97 1
-17 15 -18 45 -18 538 l0 523 23 15 c32 23 65 20 93 -8z m1908 4 l26 -20 0
-516 c0 -467 -2 -518 -17 -535 -22 -25 -71 -23 -100 4 l-23 21 0 509 0 509 25
24 c30 30 54 31 89 4z m-2239 -178 c27 -6 31 -11 36 -55 3 -30 1 -49 -5 -51
-6 -2 -54 -7 -106 -12 l-95 -10 -48 51 -48 51 53 17 c53 17 156 21 213 9z"/>
<path d="M3567 3684 c-4 -4 -7 -70 -7 -146 l0 -138 30 0 c73 0 120 57 120 145
0 49 -16 89 -46 117 -21 18 -85 33 -97 22z"/>
<path d="M4361 3654 c-20 -25 -21 -39 -21 -271 l0 -244 25 -24 c27 -28 33 -29
70 -15 47 18 55 58 55 282 0 112 -5 220 -10 240 -18 62 -82 79 -119 32z"/>
<path d="M7080 3381 l0 -302 23 6 c50 16 73 32 94 70 21 38 23 51 23 228 0
200 -4 219 -52 264 -13 13 -38 26 -56 29 l-32 7 0 -302z"/>
<path d="M7921 3658 c-30 -31 -33 -59 -29 -301 l3 -219 29 -25 c33 -28 70 -25
99 9 15 18 17 46 17 263 0 230 -1 244 -21 269 -26 33 -70 35 -98 4z"/>
</g>
</svg>
